<svg width="800" height="800" viewBox="0 0 24 24" data-name="Flat Color" xmlns="http://www.w3.org/2000/svg" class="icon flat-color">
  <path d="M2 19V8a1 1 0 0 1 2 0v11h15a1 1 0 0 1 0 2H4a2 2 0 0 1-2-2ZM6 5v10a2 2 0 0 0 2 2h12a2 2 0 0 0 2-2V5a2 2 0 0 0-2-2H8a2 2 0 0 0-2 2Z" style="fill:#000"/>
  <path d="m6.29 11.55 2.92-2.93a1 1 0 0 1 .71-.29 1 1 0 0 1 .71.29l2.13 2.13L15.53 8a1 1 0 0 1 .71-.29A1 1 0 0 1 17 8l4.76 4.76a1 1 0 0 1 .29.71V15a2 2 0 0 1-2 2H8a2 2 0 0 1-2-2v-2.74a1 1 0 0 1 .29-.71Z" style="fill:#2ca9bc"/>
</svg>